<svg xmlns="http://www.w3.org/2000/svg" viewBox="0 0 460 460" style="enable-background:new 0 0 460 460" xml:space="preserve"><path style="fill:#ff7f4f" d="M230 0C102.975 0 0 102.975 0 230c0 96.854 59.867 179.727 144.615 213.63l313.816-240.638C445.062 88.693 347.889 0 230 0z"/><path style="fill:#ff5419" d="M460 230c0-9.137-.55-18.145-1.586-27.004L379 123.583l-11.583 62.834L261 80l-100 20-20-20-20.002 19.998L101 80 81 380l63.619 63.619C171.019 454.181 199.829 460 230 460c127.025 0 230-102.975 230-230z"/><path style="fill:#ffc61b" d="M379 123.583V358l-89.495 9.423 20-158.6z"/><path style="fill:#ffedb5" d="M309.505 208.823v158.6H220l20-183.84z"/><path style="fill:#ffc61b" d="M240 183.583v183.84h-89.495l20-98.6z"/><path style="fill:#ffedb5" d="M170.505 268.823v98.6H91l10-123.84z"/><path style="fill:#940030" d="M379 380H81V80h20v278h278z"/><path style="fill:#ffc61b" d="M121 80h20v20h-20z"/><path style="fill:#ffedb5" d="M161 120h100v20H161zm-40 0h20v20h-20z"/><path style="fill:#ffc61b" d="M161 80h100v20H161z"/></svg>